<?xml version="1.0" encoding="utf-8"?>
<!-- Generator: Adobe Illustrator 15.1.0, SVG Export Plug-In . SVG Version: 6.00 Build 0)  -->
<!DOCTYPE svg PUBLIC "-//W3C//DTD SVG 1.1//EN" "http://www.w3.org/Graphics/SVG/1.1/DTD/svg11.dtd">
<svg version="1.1" id="Layer_1" xmlns="http://www.w3.org/2000/svg" xmlns:xlink="http://www.w3.org/1999/xlink" x="0px" y="0px"
	 width="200px" height="56px" viewBox="0 0 200 56" enable-background="new 0 0 200 56" xml:space="preserve">
<g>
	<g>
		<path fill="#FFFFFF" d="M55.919,27.037c0.686-5.633,3.631-7.663,7.577-7.663c4.089,0,6.349,1.973,5.662,7.635
			c-0.687,5.606-3.574,7.664-7.72,7.664C57.52,34.673,55.205,32.673,55.919,27.037 M59.75,27.037
			c-0.457,3.633,0.63,4.575,2.202,4.575c1.602,0,2.888-0.942,3.346-4.575c0.457-3.86-0.601-4.575-2.202-4.575
			C61.495,22.462,60.209,23.177,59.75,27.037"/>
		<path fill="#FFFFFF" d="M81.083,23.663c-0.286-0.429-2.288-1.172-3.861-1.172c-1.028,0-1.858,0.314-1.972,1.258
			c-0.114,1.001,1.172,1.573,2.516,2.115c1.687,0.687,3.746,1.46,3.46,4.003c-0.401,3.061-2.46,4.806-6.549,4.806
			c-1.859,0-3.917-0.458-4.747-1l1.001-2.974c0.686,0.255,2.602,0.941,4.205,0.941c1.2,0,2.172-0.258,2.315-1.342
			c0.114-1.002-0.973-1.489-2.202-2.06c-1.945-0.887-4.061-1.801-3.747-4.347c0.4-3.232,3.231-4.604,6.034-4.604
			c1.687,0,3.345,0.372,4.489,1.315L81.083,23.663z"/>
		<path fill="#FFFFFF" d="M86.803,34.302h-3.975l1.773-14.67h3.975L86.803,34.302z M85.402,13.14h3.974l-0.514,4.232h-3.976
			L85.402,13.14z"/>
		<path fill="#FFFFFF" d="M101.987,34.328c-0.658,5.348-4.204,6.864-7.721,6.864c-1.573,0-3.689-0.371-5.49-1.029l0.858-3.061
			c1.857,0.603,4.002,0.857,5.175,0.857c1.601,0,2.888-0.629,3.259-3.458l0.086-0.745c-1.229,0.716-2.344,0.832-3.346,0.832
			c-4.146,0-5.376-3.49-4.89-7.294c0.486-4.032,2.631-7.979,8.521-7.979c1.602,0,3.432,0.315,5.263,1.144L101.987,34.328z
			 M96.468,31.583c0.572,0,1.257-0.087,2.03-0.458l1.03-8.434c-0.601-0.287-1.173-0.314-1.716-0.314
			c-3.06,0-3.688,2.602-3.975,4.776C93.552,29.638,94.009,31.583,96.468,31.583"/>
		<path fill="#FFFFFF" d="M117.972,34.444h-3.574l-0.229-1.374c-1.373,1.145-2.859,1.545-4.461,1.545
			c-2.661,0-4.745-1.43-4.319-4.832l1.23-10.152h3.889l-1.114,9.238c-0.23,1.858,0.772,2.659,2.145,2.659
			c0.771,0,1.686-0.259,2.485-0.714l1.376-11.183h3.889l-1.401,11.526C117.771,32.27,117.8,33.272,117.972,34.444"/>
		<path fill="#FFFFFF" d="M124.234,34.302h-3.889l1.772-14.67h3.403v1.372c1.257-1.029,2.916-1.63,4.489-1.63
			c0.401,0,0.856,0.028,1.315,0.114l-0.801,3.261c-0.43-0.058-1.116-0.086-1.486-0.086c-1.23,0-2.775,0.229-3.462,0.686
			L124.234,34.302z"/>
		<path fill="#FFFFFF" d="M139.618,33.157c-0.973,0.887-2.087,1.458-3.745,1.458c-4.403,0-5.319-3.548-4.834-7.435
			c0.517-3.918,2.745-7.836,8.521-7.836c1.603,0,3.345,0.315,5.177,1.144l-1.315,10.669c-0.113,1.112-0.086,2.115,0.114,3.287h-3.66
			L139.618,33.157z M140.562,22.749c-0.599-0.344-1.085-0.373-1.602-0.373c-2.743,0-3.661,2.602-3.974,5.062
			c-0.258,2.145,0.343,4.174,2.431,4.174c0.572,0,1.401-0.143,2.144-0.629L140.562,22.749z"/>
		<path fill="#FFFFFF" d="M150.285,33.586c-0.659,5.29-3.402,6.374-6.233,6.374c-1.029,0-2.032-0.199-2.976-0.6l0.716-2.972
			c0.744,0.227,1.517,0.313,2.26,0.313c1.029,0,1.943-0.571,2.229-2.945l1.716-14.125h3.976L150.285,33.586z M148.799,13.14h3.974
			l-0.515,4.232h-3.974L148.799,13.14z"/>
		<polygon fill="#FFFFFF" points="156.347,34.302 152.344,34.302 152.831,30.212 156.832,30.212 		"/>
		<path fill="#FFFFFF" d="M160.466,21.118c1.342-0.6,4.376-1.801,7.378-1.801c1.543,0,2.974,0.229,3.917,1.144
			c1.458-0.601,3.26-1.144,5.347-1.144c2.804,0,4.919,1.201,4.433,5.119l-1.202,9.866h-3.86l1.145-9.438
			c0.229-1.859-0.629-2.488-1.943-2.488c-0.858,0-1.859,0.201-2.889,0.686c0,0.429,0,0.886-0.058,1.374l-1.2,9.866h-3.804
			l1.144-9.438c0.258-2.03-0.771-2.488-2.087-2.488c-0.943,0-1.83,0.201-2.688,0.629l-1.373,11.297h-3.859L160.466,21.118z"/>
		<path fill="#FFFFFF" d="M196.523,23.691c-0.484,3.89-4.287,5.178-7.119,5.178c-0.686,0-1.373-0.087-1.945-0.26
			c-0.2,2.145,1.743,2.832,3.891,2.832c1.371,0,2.744-0.316,3.573-0.627l0.057,2.888c-0.6,0.226-2.658,0.857-5.519,0.857
			c-4.947,0-6.52-3.29-6.062-7.151c0.516-4.06,3.03-7.978,8.577-7.978C194.896,19.431,196.868,20.803,196.523,23.691
			 M191.378,22.348c-2.176,0-3.49,1.601-3.89,4.031c0.399,0.145,0.857,0.201,1.23,0.201c1.715,0,3.718-0.943,3.946-2.831
			C192.749,23.062,192.236,22.348,191.378,22.348"/>
	</g>
	<g>
		<g>
			<defs>
				<path id="SVGID_1_" d="M33.635,44.233c0,0.006,0.002,0.012,0.002,0.017c0-0.078-0.001-0.109-0.001-0.109
					S33.635,44.175,33.635,44.233"/>
			</defs>
			<clipPath id="SVGID_2_">
				<use xlink:href="#SVGID_1_"  overflow="visible"/>
			</clipPath>
			
				<linearGradient id="SVGID_3_" gradientUnits="userSpaceOnUse" x1="33.6348" y1="44.1953" x2="33.6367" y2="44.1953" gradientTransform="matrix(0.009 0 0 -0.009 -63.6668 -8.3508)">
				<stop  offset="0" style="stop-color:#E67E22"/>
				<stop  offset="0.2431" style="stop-color:#E27B22"/>
				<stop  offset="0.4992" style="stop-color:#D57222"/>
				<stop  offset="0.7603" style="stop-color:#C06222"/>
				<stop  offset="1" style="stop-color:#A64F22"/>
			</linearGradient>
			<rect x="33.635" y="44.141" clip-path="url(#SVGID_2_)" fill="url(#SVGID_3_)" width="0.002" height="0.109"/>
		</g>
		<g>
			<defs>
				<path id="SVGID_4_" d="M3.449,21.262h-0.01v10.836h0.005c0-0.017,0-0.034,0-0.052c0-1.991,0.941-3.867,2.605-5.521v-0.054
					c0.01,0.008,0.019,0.017,0.03,0.025c3.923-3.875,11.828-6.522,20.94-6.522c9.098,0,16.99,2.64,20.921,6.503v0.036
					c0.006-0.006,0.014-0.012,0.021-0.017c1.682,1.662,2.633,3.55,2.633,5.55V21.262h-0.005c-0.238-5.945-10.699-10.73-23.57-10.73
					S3.687,15.317,3.449,21.262"/>
			</defs>
			<clipPath id="SVGID_5_">
				<use xlink:href="#SVGID_4_"  overflow="visible"/>
			</clipPath>
			<defs>
				<filter id="Adobe_OpacityMaskFilter" filterUnits="userSpaceOnUse" x="3.438" y="10.532" width="47.154" height="21.567">
					<feColorMatrix  type="matrix" values="1 0 0 0 0  0 1 0 0 0  0 0 1 0 0  0 0 0 1 0"/>
				</filter>
			</defs>
			<mask maskUnits="userSpaceOnUse" x="3.438" y="10.532" width="47.154" height="21.567" id="SVGID_6_">
				<g filter="url(#Adobe_OpacityMaskFilter)">
					
						<linearGradient id="SVGID_7_" gradientUnits="userSpaceOnUse" x1="-318.9507" y1="324.3281" x2="-318.6768" y2="324.3281" gradientTransform="matrix(172.22 0 0 -172.22 54933.1563 55877.1289)">
						<stop  offset="0" style="stop-color:#CCCCCC"/>
						<stop  offset="0.4245" style="stop-color:#CCCCCC"/>
						<stop  offset="0.4602" style="stop-color:#BDBDBD"/>
						<stop  offset="0.5375" style="stop-color:#A2A2A2"/>
						<stop  offset="0.6219" style="stop-color:#8D8D8D"/>
						<stop  offset="0.716" style="stop-color:#7E7E7E"/>
						<stop  offset="0.8274" style="stop-color:#757575"/>
						<stop  offset="1" style="stop-color:#737373"/>
					</linearGradient>
					<rect x="3.438" y="10.532" clip-path="url(#SVGID_5_)" fill="url(#SVGID_7_)" width="47.154" height="21.567"/>
				</g>
			</mask>
			<rect x="3.438" y="10.532" clip-path="url(#SVGID_5_)" mask="url(#SVGID_6_)" fill="#FFFFFF" width="47.154" height="21.567"/>
		</g>
		<path fill="#1D71B8" d="M50.593,32.099v-0.052c0,0.018,0,0.035-0.001,0.052H50.593z"/>
		<g>
			<g>
				<defs>
					<rect id="SVGID_8_" x="27.88" y="21.522" width="22.713" height="20.155"/>
				</defs>
				<clipPath id="SVGID_9_">
					<use xlink:href="#SVGID_8_"  overflow="visible"/>
				</clipPath>
				<g clip-path="url(#SVGID_9_)">
					<g>
						<defs>
							<rect id="SVGID_10_" x="27.88" y="21.522" width="22.713" height="20.155"/>
						</defs>
						<clipPath id="SVGID_11_">
							<use xlink:href="#SVGID_10_"  overflow="visible"/>
						</clipPath>
						<g clip-path="url(#SVGID_11_)">
							<defs>
								<path id="SVGID_12_" d="M47.959,26.55c-0.006-0.007-0.015-0.013-0.021-0.019v0.036c-3.806,3.39-11.326,5.741-20.059,5.885
									c1.829,0.053,3.22,0.377,4.398,1.38c2.118,1.795,1.61,2.487,5.536,3.528c3.703,0.985,3.34,3.977,3.287,4.316
									c5.734-2.271,9.458-5.867,9.49-9.81l0.001-10.345C50.593,23.334,49.642,25.044,47.959,26.55"/>
							</defs>
							<clipPath id="SVGID_13_">
								<use xlink:href="#SVGID_12_"  overflow="visible"/>
							</clipPath>
							<defs>
								
									<filter id="Adobe_OpacityMaskFilter_1_" filterUnits="userSpaceOnUse" x="23.72" y="16.834" width="31.033" height="29.532">
									<feColorMatrix  type="matrix" values="1 0 0 0 0  0 1 0 0 0  0 0 1 0 0  0 0 0 1 0"/>
								</filter>
							</defs>
							<mask maskUnits="userSpaceOnUse" x="23.72" y="16.834" width="31.033" height="29.532" id="SVGID_14_">
								<g filter="url(#Adobe_OpacityMaskFilter_1_)">
									
										<linearGradient id="SVGID_15_" gradientUnits="userSpaceOnUse" x1="-319.8359" y1="325.6094" x2="-319.5617" y2="325.6094" gradientTransform="matrix(-160.211 34.61 34.61 160.211 -62437.1875 -41072.4805)">
										<stop  offset="0" style="stop-color:#FFFFFF"/>
										<stop  offset="0.4245" style="stop-color:#FFFFFF"/>
										<stop  offset="0.5291" style="stop-color:#C8C8C8"/>
										<stop  offset="0.6566" style="stop-color:#8B8B8B"/>
										<stop  offset="0.7173" style="stop-color:#737373"/>
										<stop  offset="0.7453" style="stop-color:#626262"/>
										<stop  offset="0.7916" style="stop-color:#4D4D4D"/>
										<stop  offset="0.8434" style="stop-color:#3E3E3E"/>
										<stop  offset="0.9048" style="stop-color:#363636"/>
										<stop  offset="1" style="stop-color:#333333"/>
									</linearGradient>
									<polygon clip-path="url(#SVGID_13_)" fill="url(#SVGID_15_)" points="54.753,40.777 28.892,46.366 23.72,22.421 
										49.581,16.834 									"/>
								</g>
							</mask>
							
								<rect x="26.008" y="19.35" transform="matrix(0.9774 -0.2112 0.2112 0.9774 -5.7894 9.0011)" clip-path="url(#SVGID_13_)" mask="url(#SVGID_14_)" fill="#FFFFFF" width="26.458" height="24.497"/>
						</g>
					</g>
				</g>
			</g>
		</g>
		<g>
			<g>
				<defs>
					<rect id="SVGID_16_" x="3.438" y="21.315" width="37.697" height="24.152"/>
				</defs>
				<clipPath id="SVGID_17_">
					<use xlink:href="#SVGID_16_"  overflow="visible"/>
				</clipPath>
				<g clip-path="url(#SVGID_17_)">
					<defs>
						<path id="SVGID_18_" d="M37.814,37.36c-3.926-1.041-3.418-1.733-5.536-3.528c-1.575-1.342-3.313-1.411-6.277-1.388
							c-0.178-0.003-0.66-0.015-0.66-0.015c-8.398-0.27-15.583-2.586-19.264-5.88c-0.011,0.01-0.02,0.02-0.03,0.028v-0.054
							c-1.664-1.5-2.605-3.2-2.605-5.002c0-0.069,0.003-0.138,0.006-0.207h-0.01L3.443,31.85c0.043,5.041,6.12,9.525,14.724,11.395
							c0,0.012,0,0.023,0,0.032c0.063,1.272,1.14,2.252,2.406,2.188c0.951-0.046,1.738-0.67,2.043-1.516
							c0.891,0.09,7.318,0.229,10.875-0.354c0.42,0.71,1.208,1.171,2.086,1.124c0.027,0,0.051-0.003,0.078-0.006
							c0.029,0,0.058,0,0.088-0.003c0.286-0.011,0.552-0.104,0.781-0.249c0.65-0.342,1.112-0.985,1.211-1.733
							c2.099-0.533,3.358-1.018,3.358-1.018S41.74,38.403,37.814,37.36"/>
					</defs>
					<clipPath id="SVGID_19_">
						<use xlink:href="#SVGID_18_"  overflow="visible"/>
					</clipPath>
					<defs>
						<filter id="Adobe_OpacityMaskFilter_2_" filterUnits="userSpaceOnUse" x="3.438" y="21.315" width="38.302" height="24.213">
							<feColorMatrix  type="matrix" values="1 0 0 0 0  0 1 0 0 0  0 0 1 0 0  0 0 0 1 0"/>
						</filter>
					</defs>
					<mask maskUnits="userSpaceOnUse" x="3.438" y="21.315" width="38.302" height="24.213" id="SVGID_20_">
						<g filter="url(#Adobe_OpacityMaskFilter_2_)">
							
								<linearGradient id="SVGID_21_" gradientUnits="userSpaceOnUse" x1="-318.6875" y1="324.3936" x2="-318.4136" y2="324.3936" gradientTransform="matrix(137.6736 0 0 -137.6736 43878.3398 44693.7852)">
								<stop  offset="0" style="stop-color:#CCCCCC"/>
								<stop  offset="0.1904" style="stop-color:#CCCCCC"/>
								<stop  offset="0.8323" style="stop-color:#FFFFFF"/>
								<stop  offset="1" style="stop-color:#FFFFFF"/>
							</linearGradient>
							<rect x="3.438" y="21.315" clip-path="url(#SVGID_19_)" fill="url(#SVGID_21_)" width="38.302" height="24.213"/>
						</g>
					</mask>
					
						<rect x="3.438" y="21.315" clip-path="url(#SVGID_19_)" mask="url(#SVGID_20_)" fill="#FFFFFF" width="38.302" height="24.213"/>
				</g>
			</g>
		</g>
	</g>
</g>
</svg>
